# xmcd CD database file
#
# Track frame offsets:
#	150
#	14265
#	28558
#	44003
#	65310
#	87460
#	106083
#	126023
#	151510
#	173505
#	192848
#	207125
#	225150
#	238923
#
# Disc length: 3534 seconds
#
# Revision: 2
# Processed by: cddbd v1.5.2PL0 Copyright (c) Steve Scherf et al.
# Submitted via: jetAudio 7
#
DISCID=a20dcc0e
DTITLE=W-Inds. - Ageha
DYEAR=2005
DGENRE=Pop
TTITLE0=Lil' Crazy   
TTITLE1=Party Down   
TTITLE2=KIREI-DA
TTITLE3=Tokyo Love Song
TTITLE4=Four Seasons
TTITLE5=Ageha
TTITLE6=Song 4 U
TTITLE7=Pieces
TTITLE8=Changing Sky
TTITLE9=Going to the Dream
TTITLE10=Dream in a Moment
TTITLE11=Color Me   
TTITLE12=Time Machine
TTITLE13=Gift
EXTD=YEAR: 2005
EXTT0=
EXTT1=
EXTT2=
EXTT3=
EXTT4=
EXTT5=
EXTT6=
EXTT7=
EXTT8=
EXTT9=
EXTT10=
EXTT11=
EXTT12=
EXTT13=
PLAYORDER=
